<svg width="12" height="12" viewBox="0 0 12 12" fill="none" xmlns="http://www.w3.org/2000/svg">
<path d="M6 3.5L7.5 2M7.5 5L9 3.5" stroke="#E9E9EF" stroke-linecap="round"/>
<path d="M3.50001 7.5V7.5C2.81085 8.18915 3.08787 9.36262 4.01247 9.67082L4.09046 9.69682C4.63363 9.87788 5 10.3862 5 10.9587V11" stroke="#D7D7DE" stroke-linecap="round"/>
<path d="M5.20711 2.20711L8.79289 5.79289C8.9255 5.9255 9 6.10536 9 6.29289C9 6.68342 8.68342 7 8.29289 7H8L7.32843 7.67157C6.79799 8.20201 6.07857 8.5 5.32843 8.5C3.76633 8.5 2.5 7.23367 2.5 5.67157C2.5 4.92143 2.79799 4.20201 3.32843 3.67157L4 3V2.70711C4 2.31658 4.31658 2 4.70711 2C4.89464 2 5.0745 2.0745 5.20711 2.20711Z" fill="#E9E9EF"/>
<path d="M5.5 8.5V6.5C5.5 6.22386 5.72386 6 6 6H7.85961C8.1849 6 8.42358 6.30569 8.34468 6.62127L8 8H8.41289C8.84007 8 9.07052 8.50106 8.79252 8.8254L7.37963 10.4738C7.07753 10.8262 6.5 10.6126 6.5 10.1484V9H6C5.72386 9 5.5 8.77614 5.5 8.5Z" fill="#66AF7B"/>
</svg>
