<svg width="12" height="12" viewBox="0 0 12 12" fill="none" xmlns="http://www.w3.org/2000/svg">
<path d="M1.75 5.07138C1.75 4.57169 2.15508 4.16661 2.65476 4.16661V4.16661L3.10714 3.71423L3.55952 4.16661H4.05007C4.31529 4.16661 4.56964 4.27197 4.75718 4.45951L5.07615 4.77848C5.26369 4.96602 5.51804 5.07138 5.78326 5.07138H8.89286C9.44514 5.07138 9.89286 5.51909 9.89286 6.07138V9.49995C9.89286 10.0522 9.44514 10.4999 8.89286 10.4999H2.75C2.19772 10.4999 1.75 10.0522 1.75 9.49995V5.07138Z" fill="#D7D7DE"/>
<path d="M3.55955 5.52387V5.44625C3.55955 4.62698 3.23409 3.84127 2.65479 3.26196V3.26196" stroke="#66AF7B" stroke-linecap="round"/>
<path d="M5.82141 5.07149V4.16672V3.26196" stroke="#66AF7B" stroke-linecap="round"/>
<path d="M8.08328 5.52387V5.44625C8.08328 4.62698 8.40873 3.84127 8.98804 3.26196V3.26196" stroke="#66AF7B" stroke-linecap="round"/>
<path d="M1.75 2.85718V3.86436C1.75 4.30981 2.28857 4.53289 2.60355 4.21791L3.61073 3.21073C3.92571 2.89575 3.70263 2.35718 3.25718 2.35718H2.25C1.97386 2.35718 1.75 2.58104 1.75 2.85718Z" fill="#66AF7B"/>
<path d="M5.43105 1.48804L4.66184 2.44956C4.39993 2.77694 4.63302 3.26191 5.05227 3.26191L6.5907 3.26192C7.00995 3.26192 7.24304 2.77695 6.98114 2.44957L6.21192 1.48805C6.01176 1.23784 5.63121 1.23784 5.43105 1.48804Z" fill="#66AF7B"/>
<path d="M9.89282 2.85718V3.86436C9.89282 4.30981 9.35425 4.53289 9.03927 4.21791L8.03209 3.21073C7.71711 2.89575 7.94019 2.35718 8.38564 2.35718H9.39282C9.66896 2.35718 9.89282 2.58104 9.89282 2.85718Z" fill="#66AF7B"/>
<path d="M2.4654 7.63842C2.57669 7.19326 2.97667 6.88096 3.43554 6.88096H4.95483C5.22005 6.88096 5.4744 6.7756 5.66194 6.58806L5.98092 6.26909C6.16845 6.08155 6.42281 5.9762 6.68802 5.9762H9.57781C10.2089 5.9762 10.6822 6.55352 10.5584 7.17231L10.0536 9.69612C9.96015 10.1635 9.54973 10.5 9.07305 10.5H2.64654C2.19114 10.5 1.85699 10.072 1.96744 9.63023L2.4654 7.63842Z" fill="#E9E9EF"/>
</svg>
