<svg width="200" height="200" viewBox="0 0 200 200" fill="none" xmlns="http://www.w3.org/2000/svg">
<path d="M119 100C119 110.493 110.493 119 100 119C89.5066 119 81 110.493 81 100C81 89.5066 89.5066 81 100 81C110.493 81 119 89.5066 119 100Z" fill="url(#paint0_linear_102_357)"/>
<path fill-rule="evenodd" clip-rule="evenodd" d="M112.862 57.0313C116.799 59.446 120.741 62.0294 124.664 64.7765C169.904 96.4542 195.537 137.904 181.915 157.358C170.75 173.304 136.674 169.52 99.832 150.19C87.7215 156.346 75.9286 160.69 65.3019 162.987C56.3954 164.912 48.0084 165.464 40.8158 164.218C33.5918 162.966 27.1174 159.797 22.9997 153.916C19.4951 148.911 18.3917 143.04 18.9757 136.844C18.0336 136.062 17.1792 135.143 16.4431 134.092C12.0082 127.758 13.5475 119.028 19.8811 114.593C26.2148 110.159 34.9445 111.698 39.3793 118.032C43.8142 124.365 42.275 133.095 35.9413 137.53C34.3572 138.639 32.6233 139.374 30.8442 139.755C30.8398 142.817 31.5757 145.243 32.8295 147.033C34.5722 149.522 37.715 151.502 42.8644 152.394C48.0453 153.291 54.788 152.982 62.7669 151.258C70.2106 149.649 78.4699 146.865 87.1379 142.969C83.2013 140.554 79.2594 137.971 75.3362 135.224C30.0957 103.546 4.46338 62.0958 18.0848 42.6423C29.2505 26.6961 63.3261 30.4799 100.168 49.8104C112.279 43.6539 124.071 39.3096 134.698 37.0129C143.605 35.088 151.992 34.5362 159.184 35.7824C166.408 37.0341 172.883 40.2032 177 46.0838C180.505 51.089 181.608 56.9595 181.024 63.1562C181.966 63.9379 182.821 64.8571 183.557 65.9083C187.992 72.242 186.453 80.9716 180.119 85.4065C173.785 89.8414 165.056 88.3021 160.621 81.9685C156.186 75.6348 157.725 66.9051 164.059 62.4703C165.643 61.3611 167.377 60.6256 169.156 60.2454C169.16 57.1833 168.424 54.7575 167.17 52.9667C165.428 50.4779 162.285 48.4984 157.136 47.6063C151.955 46.7086 145.212 47.0177 137.233 48.7421C129.789 50.3509 121.53 53.1349 112.862 57.0313ZM117.781 74.6063C139.393 89.7392 155.841 106.898 165.157 121.963C169.826 129.514 172.388 136.03 173.244 141.126C174.087 146.149 173.171 148.924 172.085 150.475C170.999 152.026 168.705 153.835 163.696 154.761C158.615 155.7 151.616 155.521 142.923 153.715C133.797 151.82 123.449 148.267 112.544 143.12C116.592 140.675 120.642 138.04 124.664 135.224C127.378 133.323 128.038 129.582 126.137 126.867C124.237 124.153 120.495 123.493 117.781 125.394C111.809 129.575 105.813 133.306 99.9088 136.568C94.0641 133.265 88.1365 129.537 82.2191 125.394C60.6071 110.261 44.159 93.1015 34.8435 78.0374C30.1738 70.4861 27.6117 63.9704 26.7563 58.8742C25.9132 53.8508 26.8287 51.0762 27.9146 49.5253C29.0006 47.9743 31.2947 46.1652 36.3036 45.2393C41.385 44.3 48.384 44.4792 57.0771 46.2845C66.2034 48.1798 76.5505 51.733 87.456 56.8797C83.4083 59.3252 79.3581 61.9603 75.3362 64.7765C72.6218 66.6771 71.9621 70.4184 73.8628 73.1328C75.7634 75.8473 79.5047 76.507 82.2191 74.6063C88.1912 70.4246 94.1873 66.694 100.091 63.4324C105.936 66.7353 111.864 70.4629 117.781 74.6063Z" fill="url(#paint1_linear_102_357)"/>
<defs>
<linearGradient id="paint0_linear_102_357" x1="121.93" y1="-22.7954" x2="103.737" y2="210.434" gradientUnits="userSpaceOnUse">
<stop stop-color="#4AB883"/>
<stop offset="1" stop-color="#419D76"/>
</linearGradient>
<linearGradient id="paint1_linear_102_357" x1="121.93" y1="-22.7954" x2="103.737" y2="210.434" gradientUnits="userSpaceOnUse">
<stop stop-color="#4AB883"/>
<stop offset="1" stop-color="#419D76"/>
</linearGradient>
</defs>
</svg>
