<svg width="12" height="12" viewBox="0 0 12 12" fill="none" xmlns="http://www.w3.org/2000/svg">
<path d="M2.55279 9.15835L5.27639 10.5202C5.60884 10.6864 6 10.4446 6 10.0729V6.49999C6 6.12122 5.786 5.77496 5.44721 5.60556L2.72361 4.24376C2.39116 4.07754 2 4.31928 2 4.69098V8.26392C2 8.6427 2.214 8.98896 2.55279 9.15835Z" fill="#E4E4EC"/>
<path fill-rule="evenodd" clip-rule="evenodd" d="M2 4.69098V4.5C2 4.12123 2.214 3.77496 2.55279 3.60557L5.55279 2.10557C5.83431 1.96481 6.16569 1.96481 6.44721 2.10557L9.44721 3.60557C9.786 3.77496 10 4.12123 10 4.5V4.69096C10 4.31927 9.60884 4.07752 9.27639 4.24375L6.55279 5.60555C6.214 5.77494 6 6.12121 6 6.49998V6.5C6 6.12123 5.786 5.77496 5.44721 5.60557L2.72361 4.24377C2.39116 4.07754 2 4.31929 2 4.69098ZM9.9868 8.42604C9.93538 8.7393 9.73692 9.01348 9.44721 9.15834L6.72361 10.5201L6.72041 10.5217L6.44719 10.6583C6.16566 10.7991 5.83429 10.7991 5.55276 10.6583L5.55279 10.6584C5.83431 10.7991 6.16569 10.7991 6.44721 10.6584L9.44721 9.15836C9.73692 9.0135 9.93538 8.73931 9.9868 8.42604Z" fill="#E9E9EF"/>
<path d="M7.24757 2.50574L8.33132 3.04761L4.60287 5.11897C4.53938 5.15425 4.5 5.22117 4.5 5.2938V5.63922C4.5 5.75072 4.38265 5.82325 4.28292 5.77338L3.72111 5.49248C3.5856 5.42472 3.5 5.28622 3.5 5.13471V4.7054C3.5 4.63277 3.53938 4.56584 3.60287 4.53057L7.24757 2.50574Z" fill="#66AF7B"/>
<path d="M4.5 10.132L3.5 9.63196V9.12466C3.5 9.01316 3.61735 8.94063 3.71708 8.9905L4.27889 9.2714C4.4144 9.33916 4.5 9.47766 4.5 9.62917V10.132Z" fill="#66AF7B"/>
<path d="M8.27889 8.99252L7.78944 9.23724C7.65646 9.30373 7.5 9.20703 7.5 9.05835V8.38196L7.03666 8.61363C6.86475 8.69959 6.68237 8.51721 6.76833 8.3453L7.8759 6.13015C7.93695 6.00805 8.09968 5.98164 8.19621 6.07817L9.25474 7.13669C9.3754 7.25735 9.34239 7.46076 9.18976 7.53708L8.5 7.88196V8.63474C8.5 8.78625 8.4144 8.92476 8.27889 8.99252Z" fill="#66AF7B"/>
<path fill-rule="evenodd" clip-rule="evenodd" d="M9.44721 9.15833L6.72361 10.5201L6.72041 10.5217L6.44719 10.6583C6.16566 10.7991 5.83429 10.7991 5.55276 10.6583L5.27637 10.5201C5.60882 10.6864 5.99997 10.4446 5.99997 10.0729V8.88194H6V6.49997C6 6.1212 6.214 5.77493 6.55279 5.60554L9.27639 4.24374C9.60884 4.07751 10 4.31926 10 4.69095V8.2639C10 8.64267 9.786 8.98894 9.44721 9.15833ZM7.78944 9.23724L8.27889 8.99252C8.4144 8.92476 8.5 8.78625 8.5 8.63474V7.88196L9.18976 7.53708C9.34239 7.46076 9.3754 7.25735 9.25474 7.13669L8.19621 6.07817C8.09968 5.98164 7.93695 6.00805 7.87591 6.13015L6.76833 8.3453C6.68237 8.51721 6.86475 8.69959 7.03666 8.61363L7.5 8.38196V9.05835C7.5 9.20703 7.65646 9.30373 7.78944 9.23724Z" fill="#D7D7DE"/>
</svg>
