<svg width="172" height="172" viewBox="0 0 172 172" fill="none" xmlns="http://www.w3.org/2000/svg">
<g clip-path="url(#clip0_214_2)">
<path d="M105 86C105 96.4934 96.4934 105 86 105C75.5066 105 67 96.4934 67 86C67 75.5066 75.5066 67 86 67C96.4934 67 105 75.5066 105 86Z" fill="white"/>
<path fill-rule="evenodd" clip-rule="evenodd" d="M98.8621 43.0313C102.799 45.446 106.741 48.0294 110.664 50.7765C155.904 82.4542 181.537 123.904 167.915 143.358C156.75 159.304 122.674 155.52 85.832 136.19C73.7215 142.346 61.9286 146.69 51.3019 148.987C42.3954 150.912 34.0084 151.464 26.8158 150.218C19.5918 148.966 13.1174 145.797 8.99971 139.916C5.49506 134.911 4.39174 129.04 4.97569 122.844C4.03357 122.062 3.17917 121.143 2.44309 120.092C-1.9918 113.758 -0.452519 105.028 5.88115 100.593C12.2148 96.1586 20.9445 97.6979 25.3793 104.032C29.8142 110.365 28.275 119.095 21.9413 123.53C20.3572 124.639 18.6233 125.374 16.8442 125.755C16.8398 128.817 17.5757 131.243 18.8295 133.033C20.5722 135.522 23.715 137.502 28.8644 138.394C34.0453 139.291 40.788 138.982 48.7669 137.258C56.2106 135.649 64.4699 132.865 73.1379 128.969C69.2013 126.554 65.2594 123.971 61.3362 121.224C16.0957 89.5458 -9.53662 48.0958 4.08481 28.6423C15.2505 12.6961 49.3261 16.4799 86.168 35.8104C98.2785 29.6539 110.071 25.3096 120.698 23.0129C129.605 21.088 137.992 20.5362 145.184 21.7824C152.408 23.0341 158.883 26.2032 163 32.0838C166.505 37.089 167.608 42.9595 167.024 49.1562C167.966 49.9379 168.821 50.8571 169.557 51.9083C173.992 58.242 172.453 66.9716 166.119 71.4065C159.785 75.8414 151.056 74.3021 146.621 67.9685C142.186 61.6348 143.725 52.9051 150.059 48.4703C151.643 47.3611 153.377 46.6256 155.156 46.2454C155.16 43.1833 154.424 40.7575 153.17 38.9667C151.428 36.4779 148.285 34.4984 143.136 33.6063C137.955 32.7086 131.212 33.0177 123.233 34.7421C115.789 36.3509 107.53 39.1349 98.8621 43.0313ZM103.781 60.6063C125.393 75.7392 141.841 92.8984 151.157 107.963C155.826 115.514 158.388 122.03 159.244 127.126C160.087 132.149 159.171 134.924 158.085 136.475C156.999 138.026 154.705 139.835 149.696 140.761C144.615 141.7 137.616 141.521 128.923 139.715C119.797 137.82 109.449 134.267 98.544 129.12C102.592 126.675 106.642 124.04 110.664 121.224C113.378 119.323 114.038 115.582 112.137 112.867C110.237 110.153 106.495 109.493 103.781 111.394C97.8088 115.575 91.8128 119.306 85.9088 122.568C80.0641 119.265 74.1365 115.537 68.2191 111.394C46.6071 96.2608 30.159 79.1015 20.8435 64.0374C16.1738 56.4861 13.6117 49.9704 12.7563 44.8742C11.9132 39.8508 12.8287 37.0762 13.9146 35.5253C15.0006 33.9743 17.2947 32.1652 22.3036 31.2393C27.385 30.3 34.384 30.4792 43.0771 32.2845C52.2034 34.1798 62.5505 37.733 73.456 42.8797C69.4083 45.3252 65.3581 47.9603 61.3362 50.7765C58.6218 52.6771 57.9621 56.4184 59.8628 59.1328C61.7634 61.8473 65.5047 62.507 68.2191 60.6063C74.1912 56.4246 80.1873 52.694 86.0912 49.4324C91.9359 52.7353 97.8636 56.4629 103.781 60.6063Z" fill="white"/>
</g>
<defs>
<clipPath id="clip0_214_2">
<rect width="172" height="172" fill="white"/>
</clipPath>
</defs>
</svg>
